<svg width="1040" height="108" viewBox="0 0 1040 108" fill="none" xmlns="http://www.w3.org/2000/svg">
<rect x="331.714" y="54.17" width="70.19" height="70.19" rx="2" transform="rotate(-45 331.714 54.17)" stroke="black" stroke-opacity="0.125" stroke-width="2"/>
<path d="M388.937 45.9896C390.102 45.5098 391.268 46.6752 390.788 47.8406L386.263 57.7125C385.989 58.1924 385.646 58.5352 385.166 58.8094L375.295 63.334C374.129 63.8139 372.964 62.6484 373.444 61.483L377.968 51.6111C378.242 51.1312 378.585 50.7885 379.065 50.5143L388.937 45.9896ZM383.658 56.2043C384.549 55.3816 384.549 53.942 383.658 53.1193C382.836 52.2281 381.396 52.2281 380.573 53.1193C379.682 53.942 379.682 55.3816 380.573 56.2043C381.396 57.0955 382.836 57.0955 383.658 56.2043ZM382.15 37.626C391.473 37.626 399.152 45.3041 399.152 54.6275C399.152 64.0195 391.473 71.6291 382.15 71.6291C372.758 71.6291 365.148 64.0195 365.148 54.6275C365.148 45.3041 372.758 37.626 382.15 37.626ZM382.15 68.3385C389.691 68.3385 395.861 62.2371 395.861 54.6275C395.861 47.0865 389.691 40.9166 382.15 40.9166C374.54 40.9166 368.439 47.0865 368.439 54.6275C368.439 62.2371 374.54 68.3385 382.15 68.3385Z" fill="#00FFCC"/>
<rect x="470.374" y="54.17" width="70.19" height="70.19" rx="2" transform="rotate(-45 470.374 54.17)" stroke="black" stroke-opacity="0.125" stroke-width="2"/>
<path d="M539.447 39.2713C539.995 39.2713 540.544 39.7512 540.544 40.4367V64.1566C540.544 65.0479 539.927 65.8705 539.104 66.2133L528.752 69.7781C528.272 69.9152 527.861 69.9838 527.381 69.9838C526.901 69.9838 526.421 69.9152 526.01 69.7781L514.219 65.5963L502.496 69.9152C502.359 69.9838 502.222 69.9838 502.085 69.9838C501.536 69.9838 501.056 69.5725 501.056 68.8869V45.167C501.056 44.2758 501.605 43.4531 502.427 43.1103L512.779 39.5455C513.259 39.4084 513.739 39.2713 514.15 39.2713C514.63 39.3398 515.11 39.4084 515.59 39.5455L527.381 43.6588L539.036 39.4084C539.173 39.3398 539.31 39.2713 539.447 39.2713ZM516.412 43.316V62.9227L525.187 66.0076V46.401L516.412 43.316ZM504.347 65.802L513.053 62.5113H513.122V42.9047L504.347 45.9896V65.802ZM537.253 63.334V43.5217L528.478 46.8123V66.419L537.253 63.334Z" fill="#00F0FF"/>
<rect x="609.024" y="54.17" width="70.19" height="70.19" rx="2" transform="rotate(-45 609.024 54.17)" stroke="black" stroke-opacity="0.125" stroke-width="2"/>
<path d="M670.434 59.015C673.999 59.015 677.015 62.0314 677.015 65.5963C677.015 69.2297 673.999 72.1775 670.434 72.1775H651.376C652.267 71.0807 653.501 69.5039 654.598 67.79H670.434C671.599 67.79 672.627 66.8303 672.627 65.5963C672.627 64.4309 671.599 63.4025 670.434 63.4025H663.852C660.219 63.4025 657.271 60.4547 657.271 56.8213C657.271 53.2564 660.219 50.24 663.852 50.24H666.937C665.361 48.0463 663.852 45.4412 663.852 43.6588C663.852 40.0254 666.8 37.0775 670.434 37.0775C674.067 37.0775 677.015 40.0254 677.015 43.6588C677.015 47.2922 670.434 54.6275 670.434 54.6275H663.852C662.619 54.6275 661.659 55.6559 661.659 56.8213C661.659 58.0553 662.619 59.015 663.852 59.015H670.434ZM670.434 41.465C669.2 41.465 668.24 42.4933 668.24 43.6588C668.24 44.8928 669.2 45.8525 670.434 45.8525C671.599 45.8525 672.627 44.8928 672.627 43.6588C672.627 42.4933 671.599 41.465 670.434 41.465ZM648.496 54.6275C652.13 54.6275 655.077 57.5754 655.077 61.2088C655.077 64.8422 648.496 72.1775 648.496 72.1775C648.496 72.1775 641.915 64.8422 641.915 61.2088C641.915 57.5754 644.863 54.6275 648.496 54.6275ZM648.496 63.4025C649.662 63.4025 650.69 62.4428 650.69 61.2088C650.69 60.0434 649.662 59.015 648.496 59.015C647.262 59.015 646.302 60.0434 646.302 61.2088C646.302 62.4428 647.262 63.4025 648.496 63.4025Z" fill="#76DDFF"/>
</svg>
